<svg width="514" height="514" viewBox="0 0 514 514" fill="none" xmlns="http://www.w3.org/2000/svg">
<g clip-path="url(#clip0_1_2)">
<path d="M227.385 11.443C231.317 10.8068 237.107 10.0205 240.252 9.69883C243.397 9.37001 251.195 9.06264 257.585 9.00545C263.975 8.95541 273.139 9.25564 277.956 9.67023C282.774 10.092 291.701 11.2429 297.791 12.2293C303.881 13.2229 313.216 15.1458 318.52 16.5039C323.824 17.8692 330.907 19.8994 334.245 21.0217C337.583 22.1439 343.373 24.2526 347.111 25.7109C350.849 27.1691 358.726 30.6789 364.623 33.5167C370.52 36.3546 379.205 41.0153 383.922 43.8745C388.64 46.7338 396.009 51.5374 400.305 54.5468C404.594 57.5562 410.705 62.2454 413.886 64.9618C417.06 67.6782 421.913 72.0743 429.668 79.587L422.52 84.455C418.589 87.1355 403.393 97.4508 388.747 107.379C374.101 117.308 361.8 125.429 361.407 125.429C361.014 125.429 358.841 123.87 356.582 121.969C354.323 120.068 350.056 116.901 347.111 114.921C344.159 112.948 339.013 109.86 335.675 108.059C332.337 106.264 325.904 103.291 321.379 101.446C316.855 99.6091 309.135 97.0143 304.225 95.6779C299.307 94.3411 291.752 92.6971 287.427 92.018C281.823 91.1456 275.261 90.7954 264.554 90.81C254.061 90.8172 247.178 91.1888 241.681 92.032C237.357 92.7044 231.245 93.9124 228.1 94.7271C224.955 95.5418 219.001 97.336 214.877 98.7087C210.753 100.088 203.348 103.141 198.437 105.492C193.519 107.844 185.321 112.555 180.21 115.972C172.633 121.025 168.802 124.285 159.453 133.628C150.833 142.249 146.458 147.295 141.777 154.022C138.36 158.94 133.478 167.139 130.926 172.25C128.367 177.361 124.843 185.881 123.085 191.192C121.326 196.504 119.204 204.224 118.368 208.348C117.531 212.473 116.416 219.714 115.894 224.432C115.351 229.314 115.051 237.785 115.187 244.089C115.329 250.18 115.944 258.707 116.559 263.032C117.181 267.357 118.453 274.112 119.396 278.044C120.333 281.975 122.306 288.408 123.764 292.34C125.229 296.272 128.196 303.027 130.362 307.351C132.534 311.676 135.615 317.302 137.216 319.861C138.81 322.42 141.905 326.873 144.085 329.761C147.73 334.586 148.124 334.901 148.988 333.693C149.51 332.964 153.663 327.066 158.23 320.576C162.791 314.085 171.025 302.348 176.536 294.484C182.04 286.621 192.011 272.468 198.687 263.032C205.356 253.597 212.954 242.982 215.563 239.443C218.172 235.904 222.382 230.179 224.92 226.719C227.457 223.259 229.852 220.436 230.245 220.443C230.638 220.443 233.69 223.396 243.111 233.546L245.376 230.058C246.62 228.142 249.193 225.104 251.095 223.303C252.996 221.501 255.67 219.443 257.049 218.728C258.428 218.013 261.324 216.819 263.482 216.076C265.833 215.26 269.422 214.71 272.416 214.696C275.168 214.682 278.864 215.046 280.637 215.518C282.409 215.983 285.297 217.09 287.07 217.984C288.842 218.87 292.059 221.208 294.218 223.166C296.376 225.132 299.007 228.306 300.057 230.229C301.101 232.152 302.495 235.819 303.152 238.371C304.003 241.659 304.203 244.168 303.845 246.949C303.567 249.108 302.781 252.489 302.101 254.455C301.422 256.42 300.05 259.315 299.049 260.888C298.049 262.46 296.154 264.783 294.832 266.049C293.51 267.314 290.408 269.401 283.453 273.04L291.516 279.866C295.947 283.619 299.578 287.143 299.578 287.708C299.578 288.265 292.666 293.834 284.21 300.082C275.762 306.322 261.924 316.451 253.475 322.584C245.026 328.71 227.336 341.577 214.162 351.177C200.989 360.777 189.895 368.891 189.502 369.219C189.08 369.562 192.333 371.571 197.365 374.066C202.082 376.403 209.323 379.498 213.448 380.935C217.572 382.372 224.005 384.317 227.743 385.253C231.481 386.182 238.071 387.526 242.396 388.226C248.136 389.156 254.211 389.499 264.912 389.492C277.07 389.484 281.022 389.206 288.142 387.876C292.859 386.99 299.457 385.496 302.795 384.559C306.133 383.623 311.923 381.75 315.661 380.406C319.399 379.055 325.746 376.303 329.778 374.28C333.809 372.264 339.921 368.798 343.358 366.582C346.797 364.366 351.543 361.078 353.902 359.269C356.26 357.46 361.071 353.4 364.588 350.255C368.104 347.102 373.379 341.627 376.31 338.089C379.248 334.55 383.472 328.918 385.709 325.579C387.947 322.241 391.406 316.451 393.407 312.712C395.409 308.974 398.311 302.705 399.869 298.773C401.42 294.842 403.515 288.887 404.522 285.549C405.53 282.211 407.002 276.256 407.796 272.325C408.582 268.393 409.569 262.439 409.976 259.101C410.391 255.755 410.719 247.078 410.712 239.8C410.705 231.93 410.269 223.538 409.626 219.071C409.04 214.946 407.875 208.67 407.045 205.132C406.216 201.593 404.472 195.646 403.171 191.907C401.878 188.169 399.533 182.221 395.123 172.25L397.346 169.033C398.575 167.26 408.454 153.435 419.304 138.296C430.154 123.156 440.547 108.602 442.391 105.95C444.243 103.298 446.072 101.125 446.466 101.125C446.858 101.125 448.224 102.583 449.503 104.37C450.783 106.15 454.014 111.061 456.687 115.271C459.367 119.482 464.363 128.56 467.802 135.436C471.24 142.32 475.721 152.371 477.766 157.774C479.817 163.179 482.447 170.898 483.613 174.93C484.785 178.962 486.7 186.761 487.873 192.265C489.038 197.769 490.496 207.019 491.104 212.816C491.718 218.635 492.212 229.686 492.204 237.477C492.197 245.24 491.718 256.099 491.132 261.603C490.546 267.107 489.238 275.956 488.23 281.26C487.215 286.564 485.428 294.449 484.249 298.773C483.077 303.098 481.29 309.052 480.282 311.998C479.274 314.95 477.015 320.897 475.271 325.222C473.527 329.547 469.603 337.91 466.558 343.807C463.506 349.705 458.831 357.911 456.165 362.035C453.499 366.16 449.996 371.314 448.374 373.472C446.751 375.631 443.485 379.77 436.816 387.912L467.123 418.042C485.314 436.127 497.822 449.101 498.394 450.495C499.202 452.446 499.202 453.19 498.394 455.141C497.822 456.521 488.144 466.607 474.628 479.931C462.083 492.283 450.862 502.975 449.682 503.692C448.502 504.409 446.652 504.995 445.572 505C444.493 505 442.72 504.559 441.641 504.012C440.562 503.469 426.787 489.882 411.027 473.812C395.273 457.743 381.278 443.368 377.489 439.143L372.486 442.167C369.734 443.833 362.979 447.364 357.476 450.023C351.972 452.682 343.609 456.185 338.891 457.815C334.174 459.437 328.062 461.403 325.31 462.175C322.558 462.954 315.646 464.527 309.943 465.67C304.239 466.807 296.197 468.158 292.073 468.673C287.477 469.244 276.812 469.602 264.554 469.588C249.365 469.573 242.389 469.266 235.605 468.308C230.695 467.614 222.49 466.228 217.379 465.227C212.268 464.226 204.227 462.289 199.509 460.917C194.792 459.552 186.593 456.814 181.282 454.834C175.971 452.861 166.644 448.715 160.554 445.62C154.464 442.524 145.615 437.471 140.897 434.382C136.18 431.295 128.939 426.098 124.815 422.824C119.816 418.859 117.038 417.088 116.48 417.513C116.016 417.863 108.539 423.539 99.8618 430.122C86.4098 440.323 83.7005 442.096 81.5706 442.096C79.7407 442.096 78.4898 441.516 76.9245 439.951C75.4306 438.457 74.7801 437.106 74.773 435.483C74.7659 433.682 76.5385 430.594 82.6929 421.723C87.0531 415.433 92.1205 408.113 93.9578 405.461C97.0454 400.993 97.2101 400.543 96.1522 399.385C95.5302 398.699 92.6281 395.239 89.712 391.7C86.7886 388.162 82.6212 382.858 80.4412 379.906C78.2611 376.961 74.5371 371.65 72.1712 368.111C69.8053 364.573 66.5602 359.426 64.9591 356.674C63.358 353.922 59.6411 346.845 56.7105 340.948C53.7728 335.051 49.5842 325.565 47.3969 319.861C45.2169 314.156 42.2934 305.479 40.9139 300.56C39.5272 295.65 37.6045 287.279 36.6395 281.975C35.6674 276.671 34.4451 269.273 33.9234 265.534C33.2848 261.007 32.9775 251.476 33.0013 236.941C33.0299 220.1 33.3229 213.102 34.3022 206.204C34.9955 201.293 36.3393 193.73 37.29 189.405C38.2335 185.081 39.8346 178.49 40.8496 174.752C41.8646 171.013 44.3091 163.622 46.2748 158.311C48.2404 152.999 52.2288 143.835 55.1309 137.938C58.0329 132.041 62.4073 123.999 64.859 120.068C67.3036 116.136 72.064 109.217 75.4306 104.699C78.7972 100.181 84.9299 92.6399 89.0687 87.9575C93.2002 83.2683 99.7475 76.5132 103.614 72.9462C107.488 69.3725 114.4 63.4607 118.982 59.7935C123.564 56.1266 131.333 50.4366 136.251 47.1556C141.162 43.8674 149.846 38.7635 155.55 35.8113C161.254 32.8591 169.453 28.9276 173.777 27.0762C178.101 25.2176 185.821 22.294 190.932 20.5713C196.042 18.8557 204.727 16.3538 210.231 15.0171C215.734 13.6875 223.454 12.072 227.385 11.443Z" fill="#0063B2" fill-opacity="0.99"/>
<path d="M422.52 84.4409C426.452 81.7599 437.388 74.2758 446.823 67.8283C461.49 57.7993 464.363 56.0908 466.658 56.0908C468.567 56.0908 469.853 56.6055 471.125 57.8778C472.398 59.1502 472.912 60.4368 472.912 62.3457C472.912 64.6973 471.333 67.1705 459.996 82.5393C452.898 92.1749 447.266 100.453 447.488 100.946C447.731 101.482 447.538 101.675 447.002 101.432C446.466 101.182 444.7 102.962 442.57 105.9C440.626 108.58 430.154 123.156 419.304 138.296C408.446 153.435 398.154 167.911 396.424 170.463C394.701 173.015 388.947 180.742 383.644 187.618C378.34 194.502 368.204 207.526 361.128 216.569C354.052 225.611 341.321 241.845 332.851 252.646C324.381 263.447 315.475 274.384 313.066 276.95C310.658 279.516 306.719 283.148 304.31 285.013C300.972 287.608 299.85 288.158 299.578 287.336C299.385 286.743 295.669 283.29 283.431 273.04L287.928 270.695C290.408 269.401 293.51 267.314 294.832 266.049C296.154 264.783 298.049 262.46 299.049 260.888C300.05 259.315 301.422 256.42 302.101 254.454C302.781 252.489 303.567 249.108 303.846 246.949C304.203 244.168 304.003 241.659 303.152 238.371C302.495 235.819 301.101 232.152 300.057 230.229C299.007 228.306 296.376 225.132 294.218 223.166C292.059 221.208 288.842 218.87 287.07 217.984C285.297 217.09 282.409 215.983 280.637 215.518C278.864 215.046 275.168 214.682 272.417 214.696C269.422 214.71 265.833 215.26 263.482 216.076C261.324 216.819 258.429 218.013 257.049 218.728C255.67 219.442 252.996 221.501 251.095 223.303C249.193 225.103 246.62 228.135 243.111 233.488L230.002 219.428L233.426 215.139C235.306 212.78 238.743 209.077 241.059 206.919C243.461 204.674 270.001 186.518 302.981 164.565C334.724 143.435 360.528 125.822 360.334 125.429C360.142 125.035 360.378 124.9 360.871 125.128C361.364 125.35 373.83 117.394 388.568 107.437C403.315 97.4788 418.589 87.1282 422.52 84.4409Z" fill="#F7C045" fill-opacity="0.99"/>
</g>
<defs>
<clipPath id="clip0_1_2">
<rect width="466" height="496" fill="white" transform="translate(33 9)"/>
</clipPath>
</defs>
</svg>
