<svg width="300" height="400" xmlns="http://www.w3.org/2000/svg">
  <rect width="300" height="400" fill="#f8f9fa" rx="20"/>
  <rect x="20" y="20" width="260" height="360" fill="#ffffff" rx="15" stroke="#e9ecef" stroke-width="2"/>
  <rect x="40" y="40" width="220" height="30" fill="#343a40" rx="15"/>
  <text x="150" y="60" font-family="Arial" font-size="12" fill="#ffffff" text-anchor="middle">BuildaQuest</text>
  <rect x="40" y="90" width="220" height="220" fill="#000000" rx="8"/>
  <rect x="60" y="110" width="180" height="180" fill="#ffffff" rx="4"/>
  <!-- QR Code pattern -->
  <rect x="70" y="120" width="20" height="20" fill="#000000"/>
  <rect x="100" y="120" width="20" height="20" fill="#000000"/>
  <rect x="130" y="120" width="20" height="20" fill="#000000"/>
  <rect x="160" y="120" width="20" height="20" fill="#000000"/>
  <rect x="190" y="120" width="20" height="20" fill="#000000"/>
  <rect x="70" y="150" width="20" height="20" fill="#000000"/>
  <rect x="190" y="150" width="20" height="20" fill="#000000"/>
  <rect x="70" y="180" width="20" height="20" fill="#000000"/>
  <rect x="100" y="180" width="20" height="20" fill="#000000"/>
  <rect x="160" y="180" width="20" height="20" fill="#000000"/>
  <rect x="190" y="180" width="20" height="20" fill="#000000"/>
  <rect x="70" y="210" width="20" height="20" fill="#000000"/>
  <rect x="130" y="210" width="20" height="20" fill="#000000"/>
  <rect x="190" y="210" width="20" height="20" fill="#000000"/>
  <rect x="70" y="240" width="20" height="20" fill="#000000"/>
  <rect x="100" y="240" width="20" height="20" fill="#000000"/>
  <rect x="130" y="240" width="20" height="20" fill="#000000"/>
  <rect x="160" y="240" width="20" height="20" fill="#000000"/>
  <rect x="190" y="240" width="20" height="20" fill="#000000"/>
  <text x="150" y="340" font-family="Arial" font-size="16" fill="#343a40" text-anchor="middle">Scan QR Code</text>
  <text x="150" y="360" font-family="Arial" font-size="12" fill="#6c757d" text-anchor="middle">to join quest</text>
  <circle cx="150" cy="190" r="40" fill="none" stroke="#00d4aa" stroke-width="3"/>
</svg>